<mxfile host="app.diagrams.net" modified="2024-01-01T08:33:16.133Z" agent="Mozilla/5.0 (Macintosh; Intel Mac OS X 10_15_7) AppleWebKit/537.36 (KHTML, like Gecko) Chrome/90.0.4430.212 Safari/537.36" etag="AGsAxWstKyoVtqNffraj" version="22.1.15" type="github">
  <diagram name="第 1 页" id="PR04_hHb-Y1HilmeZlOw">
    <mxGraphModel dx="1443" dy="709" grid="1" gridSize="10" guides="1" tooltips="1" connect="1" arrows="1" fold="1" page="1" pageScale="1" pageWidth="1169" pageHeight="827" math="0" shadow="0">
      <root>
        <mxCell id="0" />
        <mxCell id="1" parent="0" />
        <mxCell id="habpimvgPT132JKMXdbV-9" style="edgeStyle=orthogonalEdgeStyle;rounded=0;orthogonalLoop=1;jettySize=auto;html=1;entryX=0;entryY=0.75;entryDx=0;entryDy=0;" edge="1" parent="1" source="habpimvgPT132JKMXdbV-3" target="z97M-Kj-8ajkmH52QQyC-7">
          <mxGeometry relative="1" as="geometry">
            <Array as="points">
              <mxPoint x="390" y="485" />
            </Array>
          </mxGeometry>
        </mxCell>
        <mxCell id="habpimvgPT132JKMXdbV-10" value="常用资源申请&lt;br style=&quot;border-color: var(--border-color);&quot;&gt;（ECS,RDS,&lt;br style=&quot;border-color: var(--border-color);&quot;&gt;OSS,EIP)" style="edgeLabel;html=1;align=center;verticalAlign=middle;resizable=0;points=[];" vertex="1" connectable="0" parent="habpimvgPT132JKMXdbV-9">
          <mxGeometry x="0.3395" y="5" relative="1" as="geometry">
            <mxPoint x="-1" as="offset" />
          </mxGeometry>
        </mxCell>
        <mxCell id="habpimvgPT132JKMXdbV-3" value="" style="rounded=0;whiteSpace=wrap;html=1;" vertex="1" parent="1">
          <mxGeometry x="260" y="187" width="180" height="90" as="geometry" />
        </mxCell>
        <mxCell id="PmjK9yz6c--jbu39in0--11" style="edgeStyle=orthogonalEdgeStyle;rounded=0;orthogonalLoop=1;jettySize=auto;html=1;entryX=0;entryY=0.5;entryDx=0;entryDy=0;" parent="1" source="PmjK9yz6c--jbu39in0--1" target="PmjK9yz6c--jbu39in0--3" edge="1">
          <mxGeometry relative="1" as="geometry" />
        </mxCell>
        <mxCell id="PmjK9yz6c--jbu39in0--12" value="根据规则自动pull相应代码&lt;br&gt;进行编译打包" style="edgeLabel;html=1;align=center;verticalAlign=middle;resizable=0;points=[];" parent="PmjK9yz6c--jbu39in0--11" vertex="1" connectable="0">
          <mxGeometry x="-0.0082" y="-1" relative="1" as="geometry">
            <mxPoint as="offset" />
          </mxGeometry>
        </mxCell>
        <mxCell id="PmjK9yz6c--jbu39in0--1" value="Gitlab" style="rounded=1;whiteSpace=wrap;html=1;fillColor=#d5e8d4;strokeColor=#82b366;" parent="1" vertex="1">
          <mxGeometry x="590" y="200" width="120" height="60" as="geometry" />
        </mxCell>
        <mxCell id="PmjK9yz6c--jbu39in0--2" value="代码仓库版本控制" style="text;html=1;align=center;verticalAlign=middle;resizable=0;points=[];autosize=1;strokeColor=#82b366;fillColor=#d5e8d4;" parent="1" vertex="1">
          <mxGeometry x="591" y="170" width="120" height="30" as="geometry" />
        </mxCell>
        <mxCell id="z97M-Kj-8ajkmH52QQyC-1" style="edgeStyle=orthogonalEdgeStyle;rounded=0;orthogonalLoop=1;jettySize=auto;html=1;" parent="1" source="PmjK9yz6c--jbu39in0--3" target="PmjK9yz6c--jbu39in0--5" edge="1">
          <mxGeometry relative="1" as="geometry" />
        </mxCell>
        <mxCell id="z97M-Kj-8ajkmH52QQyC-2" value="镜像下发到ACR中" style="edgeLabel;html=1;align=center;verticalAlign=middle;resizable=0;points=[];" parent="z97M-Kj-8ajkmH52QQyC-1" vertex="1" connectable="0">
          <mxGeometry x="-0.0306" y="-2" relative="1" as="geometry">
            <mxPoint as="offset" />
          </mxGeometry>
        </mxCell>
        <mxCell id="z97M-Kj-8ajkmH52QQyC-5" style="edgeStyle=orthogonalEdgeStyle;rounded=0;orthogonalLoop=1;jettySize=auto;html=1;entryX=0.5;entryY=0;entryDx=0;entryDy=0;" parent="1" source="PmjK9yz6c--jbu39in0--3" target="PmjK9yz6c--jbu39in0--7" edge="1">
          <mxGeometry relative="1" as="geometry" />
        </mxCell>
        <mxCell id="z97M-Kj-8ajkmH52QQyC-6" value="通知k8s集群pull镜像，并按&lt;br&gt;指定的规则部署镜像" style="edgeLabel;html=1;align=center;verticalAlign=middle;resizable=0;points=[];" parent="z97M-Kj-8ajkmH52QQyC-5" vertex="1" connectable="0">
          <mxGeometry x="-0.2103" y="4" relative="1" as="geometry">
            <mxPoint as="offset" />
          </mxGeometry>
        </mxCell>
        <mxCell id="PmjK9yz6c--jbu39in0--3" value="Jenkins" style="rounded=1;whiteSpace=wrap;html=1;fillColor=#d5e8d4;strokeColor=#82b366;" parent="1" vertex="1">
          <mxGeometry x="900" y="200" width="120" height="60" as="geometry" />
        </mxCell>
        <mxCell id="PmjK9yz6c--jbu39in0--4" value="CI/CD" style="text;html=1;align=center;verticalAlign=middle;resizable=0;points=[];autosize=1;strokeColor=#82b366;fillColor=#d5e8d4;" parent="1" vertex="1">
          <mxGeometry x="932" y="170" width="60" height="30" as="geometry" />
        </mxCell>
        <mxCell id="PmjK9yz6c--jbu39in0--5" value="ACR" style="rounded=1;whiteSpace=wrap;html=1;fillColor=#dae8fc;strokeColor=#6c8ebf;" parent="1" vertex="1">
          <mxGeometry x="1180" y="200" width="120" height="60" as="geometry" />
        </mxCell>
        <mxCell id="z97M-Kj-8ajkmH52QQyC-3" style="edgeStyle=orthogonalEdgeStyle;rounded=0;orthogonalLoop=1;jettySize=auto;html=1;entryX=1;entryY=0.75;entryDx=0;entryDy=0;" parent="1" target="PmjK9yz6c--jbu39in0--7" edge="1">
          <mxGeometry relative="1" as="geometry">
            <mxPoint x="1210" y="260" as="sourcePoint" />
            <Array as="points">
              <mxPoint x="1210" y="425" />
            </Array>
          </mxGeometry>
        </mxCell>
        <mxCell id="z97M-Kj-8ajkmH52QQyC-4" value="根据Jenkins配好的规则，&lt;br&gt;pull镜像到集群上" style="edgeLabel;html=1;align=center;verticalAlign=middle;resizable=0;points=[];" parent="z97M-Kj-8ajkmH52QQyC-3" vertex="1" connectable="0">
          <mxGeometry x="0.1984" y="3" relative="1" as="geometry">
            <mxPoint x="60" y="-28" as="offset" />
          </mxGeometry>
        </mxCell>
        <mxCell id="PmjK9yz6c--jbu39in0--6" value="云环境：&lt;br&gt;镜像仓库" style="text;html=1;align=center;verticalAlign=middle;resizable=0;points=[];autosize=1;strokeColor=#6c8ebf;fillColor=#dae8fc;" parent="1" vertex="1">
          <mxGeometry x="1205" y="160" width="70" height="40" as="geometry" />
        </mxCell>
        <mxCell id="PmjK9yz6c--jbu39in0--7" value="k8s集群&lt;br&gt;（ACS）" style="rounded=1;whiteSpace=wrap;html=1;fillColor=#dae8fc;strokeColor=#6c8ebf;" parent="1" vertex="1">
          <mxGeometry x="899" y="380" width="120" height="60" as="geometry" />
        </mxCell>
        <mxCell id="PmjK9yz6c--jbu39in0--8" value="服务部署环境" style="text;html=1;align=center;verticalAlign=middle;resizable=0;points=[];autosize=1;strokeColor=#6c8ebf;fillColor=#dae8fc;" parent="1" vertex="1">
          <mxGeometry x="910" y="446" width="100" height="30" as="geometry" />
        </mxCell>
        <mxCell id="PmjK9yz6c--jbu39in0--9" value="云产品" style="rounded=0;whiteSpace=wrap;html=1;fillColor=#dae8fc;strokeColor=#6c8ebf;" parent="1" vertex="1">
          <mxGeometry x="591" y="80" width="120" height="20" as="geometry" />
        </mxCell>
        <mxCell id="PmjK9yz6c--jbu39in0--10" value="云上环境部署" style="rounded=0;whiteSpace=wrap;html=1;fillColor=#d5e8d4;strokeColor=#82b366;" parent="1" vertex="1">
          <mxGeometry x="591" y="110" width="119" height="20" as="geometry" />
        </mxCell>
        <mxCell id="z97M-Kj-8ajkmH52QQyC-7" value="CM" style="rounded=1;whiteSpace=wrap;html=1;fillColor=#fff2cc;strokeColor=#d6b656;" parent="1" vertex="1">
          <mxGeometry x="591" y="440" width="120" height="60" as="geometry" />
        </mxCell>
        <mxCell id="z97M-Kj-8ajkmH52QQyC-8" value="资源申请与管理" style="text;html=1;align=center;verticalAlign=middle;resizable=0;points=[];autosize=1;strokeColor=#d6b656;fillColor=#fff2cc;" parent="1" vertex="1">
          <mxGeometry x="597" y="410" width="110" height="30" as="geometry" />
        </mxCell>
        <mxCell id="z97M-Kj-8ajkmH52QQyC-9" value="ASCM" style="rounded=1;whiteSpace=wrap;html=1;fillColor=#dae8fc;strokeColor=#6c8ebf;" parent="1" vertex="1">
          <mxGeometry x="590" y="595" width="120" height="60" as="geometry" />
        </mxCell>
        <mxCell id="z97M-Kj-8ajkmH52QQyC-10" value="云平台运维管理" style="text;html=1;align=center;verticalAlign=middle;resizable=0;points=[];autosize=1;strokeColor=#6c8ebf;fillColor=#dae8fc;" parent="1" vertex="1">
          <mxGeometry x="595" y="560" width="110" height="30" as="geometry" />
        </mxCell>
        <mxCell id="z97M-Kj-8ajkmH52QQyC-12" value="Actor" style="shape=umlActor;verticalLabelPosition=bottom;verticalAlign=top;html=1;outlineConnect=0;" parent="1" vertex="1">
          <mxGeometry x="390" y="964" width="30" height="60" as="geometry" />
        </mxCell>
        <mxCell id="z97M-Kj-8ajkmH52QQyC-17" style="edgeStyle=orthogonalEdgeStyle;rounded=0;orthogonalLoop=1;jettySize=auto;html=1;" parent="1" source="z97M-Kj-8ajkmH52QQyC-12" edge="1">
          <mxGeometry relative="1" as="geometry">
            <Array as="points">
              <mxPoint x="405" y="1084" />
              <mxPoint x="859" y="1084" />
            </Array>
            <mxPoint x="830" y="696" as="targetPoint" />
          </mxGeometry>
        </mxCell>
        <mxCell id="z97M-Kj-8ajkmH52QQyC-18" value="非常用资源申请&lt;br&gt;(Nat绑定，OTS...)" style="edgeLabel;html=1;align=center;verticalAlign=middle;resizable=0;points=[];" parent="z97M-Kj-8ajkmH52QQyC-17" vertex="1" connectable="0">
          <mxGeometry x="0.1983" y="1" relative="1" as="geometry">
            <mxPoint as="offset" />
          </mxGeometry>
        </mxCell>
        <mxCell id="z97M-Kj-8ajkmH52QQyC-19" value="云产品" style="rounded=0;whiteSpace=wrap;html=1;fillColor=#dae8fc;strokeColor=#6c8ebf;" parent="1" vertex="1">
          <mxGeometry x="390" y="850" width="120" height="20" as="geometry" />
        </mxCell>
        <mxCell id="z97M-Kj-8ajkmH52QQyC-20" value="云栖工程院产品" style="rounded=0;whiteSpace=wrap;html=1;fillColor=#d5e8d4;strokeColor=#82b366;" parent="1" vertex="1">
          <mxGeometry x="390" y="880" width="119" height="20" as="geometry" />
        </mxCell>
        <mxCell id="habpimvgPT132JKMXdbV-5" style="edgeStyle=orthogonalEdgeStyle;rounded=0;orthogonalLoop=1;jettySize=auto;html=1;entryX=0;entryY=0.5;entryDx=0;entryDy=0;" edge="1" parent="1" source="habpimvgPT132JKMXdbV-1" target="PmjK9yz6c--jbu39in0--1">
          <mxGeometry relative="1" as="geometry" />
        </mxCell>
        <mxCell id="habpimvgPT132JKMXdbV-11" style="edgeStyle=orthogonalEdgeStyle;rounded=0;orthogonalLoop=1;jettySize=auto;html=1;entryX=0;entryY=0.75;entryDx=0;entryDy=0;" edge="1" parent="1" source="habpimvgPT132JKMXdbV-1" target="z97M-Kj-8ajkmH52QQyC-9">
          <mxGeometry relative="1" as="geometry">
            <Array as="points">
              <mxPoint x="350" y="640" />
            </Array>
          </mxGeometry>
        </mxCell>
        <mxCell id="habpimvgPT132JKMXdbV-13" value="非常用资源申请&lt;br style=&quot;border-color: var(--border-color);&quot;&gt;(Nat绑定，OTS...)" style="edgeLabel;html=1;align=center;verticalAlign=middle;resizable=0;points=[];" vertex="1" connectable="0" parent="habpimvgPT132JKMXdbV-11">
          <mxGeometry x="0.4842" y="3" relative="1" as="geometry">
            <mxPoint x="-1" as="offset" />
          </mxGeometry>
        </mxCell>
        <mxCell id="habpimvgPT132JKMXdbV-1" value="git客户端" style="rounded=1;whiteSpace=wrap;html=1;fillColor=#e1d5e7;strokeColor=#9673a6;" vertex="1" parent="1">
          <mxGeometry x="290" y="199" width="120" height="60" as="geometry" />
        </mxCell>
        <mxCell id="habpimvgPT132JKMXdbV-4" value="客户机器" style="text;html=1;align=center;verticalAlign=middle;resizable=0;points=[];autosize=1;strokeColor=none;fillColor=none;" vertex="1" parent="1">
          <mxGeometry x="315" y="160" width="70" height="30" as="geometry" />
        </mxCell>
        <mxCell id="habpimvgPT132JKMXdbV-6" value="代码pull" style="text;html=1;align=center;verticalAlign=middle;resizable=0;points=[];autosize=1;strokeColor=none;fillColor=none;" vertex="1" parent="1">
          <mxGeometry x="469" y="199" width="70" height="30" as="geometry" />
        </mxCell>
        <mxCell id="habpimvgPT132JKMXdbV-7" value="代码commit" style="text;html=1;align=center;verticalAlign=middle;resizable=0;points=[];autosize=1;strokeColor=none;fillColor=none;" vertex="1" parent="1">
          <mxGeometry x="499" y="300" width="90" height="30" as="geometry" />
        </mxCell>
        <mxCell id="habpimvgPT132JKMXdbV-8" style="edgeStyle=orthogonalEdgeStyle;rounded=0;orthogonalLoop=1;jettySize=auto;html=1;" edge="1" parent="1">
          <mxGeometry relative="1" as="geometry">
            <mxPoint x="599" y="250" as="sourcePoint" />
            <mxPoint x="409" y="250" as="targetPoint" />
          </mxGeometry>
        </mxCell>
      </root>
    </mxGraphModel>
  </diagram>
</mxfile>
